<svg xmlns="http://www.w3.org/2000/svg" data-name="Layer 1" viewBox="0 0 124 93" fill="currentColor">
  <path d="M31 46.5a7.75 7.75 0 0 1 7.75-7.75h77.5a7.75 7.75 0 0 1 0 15.5h-77.5A7.75 7.75 0 0 1 31 46.5"></path>
  <path d="M31.2 46.6a7.75 7.75 0 0 1 13.23-5.48L75 71.67a7.778 7.778 0 1 1-11 11L33.47 52.08a7.74 7.74 0 0 1-2.27-5.48"></path>
  <path d="M31.2 46.15a7.74 7.74 0 0 1 2.27-5.48L64 10.12a7.778 7.778 0 0 1 11 11L44.43 51.63a7.75 7.75 0 0 1-13.23-5.48M0 85.25V7.75a7.75 7.75 0 0 1 15.5 0v77.5a7.75 7.75 0 0 1-15.5 0"></path>
</svg>
